<svg xmlns="http://www.w3.org/2000/svg" viewBox="0 0 891.69 137.72">
	<defs>
		<style>
			.cls-1 {
				fill: #fff800;
			}

			.cls-2 {
				fill: #ff4919;
			}

			.cls-3 {
				isolation: isolate;
			}

			.cls-4 {
				fill: #fff;
			}
		</style>
	</defs>

	<g>
		<rect width="137.72" height="137.72" />
		<path class="cls-1" d="M49.45,36.92V5.77H88.23V36.92a7.71,7.71,0,0,1-7.62,7.62H57.08A7.6,7.6,0,0,1,49.45,36.92Z" />
		<path class="cls-1" d="M101,49.69h31.16V88.47H101a7.71,7.71,0,0,1-7.62-7.62V57.31A7.6,7.6,0,0,1,101,49.69Z" />
		<path class="cls-1" d="M36.36,88.47h-31V49.69h31A7.71,7.71,0,0,1,44,57.31V80.84A7.6,7.6,0,0,1,36.36,88.47Z" />
		<path class="cls-2" d="M49.45,80.68V57.14a7.6,7.6,0,0,1,7.62-7.62h23.7a7.6,7.6,0,0,1,7.62,7.62v23.7a7.6,7.6,0,0,1-7.62,7.62H56.91A7.83,7.83,0,0,1,49.45,80.68Z" />
		<path class="cls-1" d="M5.37,44.55V5.77H44.15v31a7.78,7.78,0,0,1-7.79,7.79Z" />
		<path class="cls-1" d="M93.54,5.77h38.78V44.55h-31a7.78,7.78,0,0,1-7.79-7.79Z" />
		<path class="cls-1" d="M88.23,100.9v31.16H49.45V100.9a7.71,7.71,0,0,1,7.62-7.62H80.61A7.6,7.6,0,0,1,88.23,100.9Z" />
		<path class="cls-1" d="M132.32,93.27v38.78H93.54v-31a7.78,7.78,0,0,1,7.79-7.79Z" />
		<path class="cls-1" d="M44,132.05H5.37V93.27h31a7.78,7.78,0,0,1,7.79,7.79v31Z" />
		<g class="cls-3">
			<path class="cls-4" d="M202.38,50.79a18.23,18.23,0,0,0-2.7-2,33,33,0,0,0-4.77-2.49,41.39,41.39,0,0,0-6.1-2.07,26.66,26.66,0,0,0-6.68-.85q-6,0-9,2.23a7.37,7.37,0,0,0-3,6.25,6.42,6.42,0,0,0,1.11,3.87,9.59,9.59,0,0,0,3.23,2.7,27.07,27.07,0,0,0,5.35,2.12q3.23,1,7.47,2,5.51,1.49,10,3.18A27.17,27.17,0,0,1,205,70a17.53,17.53,0,0,1,4.82,6.1,20.23,20.23,0,0,1,1.7,8.75,21.79,21.79,0,0,1-2.28,10.33,19.16,19.16,0,0,1-6.15,6.94,26.7,26.7,0,0,1-8.9,3.87,44.74,44.74,0,0,1-10.55,1.22,56.64,56.64,0,0,1-16.75-2.54A51.66,51.66,0,0,1,152,97.43l6.47-12.61a20.35,20.35,0,0,0,3.45,2.49,52.12,52.12,0,0,0,5.88,3.07,45.54,45.54,0,0,0,7.53,2.6A33.94,33.94,0,0,0,183.83,94q12.08,0,12.08-7.74a6.35,6.35,0,0,0-1.38-4.13,11.7,11.7,0,0,0-3.92-3,37.56,37.56,0,0,0-6.15-2.33q-3.6-1.06-8.06-2.33A68.4,68.4,0,0,1,167,71.3a24.65,24.65,0,0,1-6.62-4.13,15.48,15.48,0,0,1-4-5.51,19.07,19.07,0,0,1-1.33-7.47A23.38,23.38,0,0,1,157.23,44a20.57,20.57,0,0,1,5.88-7.42,26.66,26.66,0,0,1,8.74-4.5,36.17,36.17,0,0,1,10.71-1.54A41.56,41.56,0,0,1,197.19,33a54.54,54.54,0,0,1,11.66,5.88Z" />
			<path class="cls-4" d="M222.52,106.33V31.07h31.91A21.38,21.38,0,0,1,264,33.24,24.86,24.86,0,0,1,271.6,39a27.06,27.06,0,0,1,5,8.06,24.24,24.24,0,0,1,1.8,9.06,26.14,26.14,0,0,1-1.7,9.28,25.77,25.77,0,0,1-4.77,8A23.46,23.46,0,0,1,264.5,79,21.46,21.46,0,0,1,255,81.1H237.15v25.23Zm14.63-38.05h17A8.38,8.38,0,0,0,260.84,65q2.7-3.28,2.7-8.9a14.67,14.67,0,0,0-.85-5.14,12.54,12.54,0,0,0-2.23-3.87,8.86,8.86,0,0,0-3.23-2.38,9.47,9.47,0,0,0-3.76-.79H237.15Z" />
			<path class="cls-4" d="M340.82,93.5v12.83H288.56V31.07h51.3V43.9H303.19V62h31.69V73.9H303.19V93.5Z" />
			<path class="cls-4" d="M404.52,93.5v12.83H352.26V31.07h51.3V43.9H366.89V62h31.69V73.9H366.89V93.5Z" />
			<path class="cls-4" d="M416,106.33V31.07h27.35a40.88,40.88,0,0,1,16.17,3,32.49,32.49,0,0,1,18.6,20,44.87,44.87,0,0,1,2.33,14.57,44.07,44.07,0,0,1-2.6,15.53A33.17,33.17,0,0,1,470.35,96a33.64,33.64,0,0,1-11.71,7.63,41.36,41.36,0,0,1-15.32,2.7ZM465.68,68.6a32.06,32.06,0,0,0-1.48-10,22.32,22.32,0,0,0-4.35-7.84,19.36,19.36,0,0,0-7-5.09,23.79,23.79,0,0,0-9.49-1.8H430.6V93.5h12.72a22.9,22.9,0,0,0,9.59-1.91,19.63,19.63,0,0,0,7-5.25,23.37,23.37,0,0,0,4.29-7.9A31.69,31.69,0,0,0,465.68,68.6Z" />
			<path class="cls-4" d="M487.31,68.17a39,39,0,0,1,2.49-13.62,36.53,36.53,0,0,1,18.92-20.62,36,36,0,0,1,15.69-3.29,34.22,34.22,0,0,1,18,4.56,29.12,29.12,0,0,1,11.29,11.87l-11.24,7.74a19.25,19.25,0,0,0-3.6-5.35A18.09,18.09,0,0,0,534.26,46a20.55,20.55,0,0,0-5.09-1.85,24.2,24.2,0,0,0-5.19-.58,19.74,19.74,0,0,0-9.59,2.23,21.1,21.1,0,0,0-6.78,5.78,25.49,25.49,0,0,0-4.08,8.06,30.49,30.49,0,0,0-1.38,9,29.23,29.23,0,0,0,1.59,9.59,25.53,25.53,0,0,0,4.5,8.11,22.53,22.53,0,0,0,7,5.62,19.12,19.12,0,0,0,9,2.12,23.57,23.57,0,0,0,5.3-.64,20.15,20.15,0,0,0,5.25-2,19.85,19.85,0,0,0,4.61-3.55,16.36,16.36,0,0,0,3.39-5.25l12,6.89A22.62,22.62,0,0,1,549.58,97a33.06,33.06,0,0,1-7.53,5.46,38.46,38.46,0,0,1-9,3.39,39.21,39.21,0,0,1-9.33,1.17A32,32,0,0,1,509,103.58a38.34,38.34,0,0,1-11.5-8.85A41,41,0,0,1,490,82.32,38.68,38.68,0,0,1,487.31,68.17Z" />
			<path class="cls-4" d="M596.38,93.93a16.78,16.78,0,0,0,8.75-2.12,17.08,17.08,0,0,0,5.72-5.51,22.78,22.78,0,0,0,3.07-7.79,45.11,45.11,0,0,0,.9-9.06V31.07h14.52V69.44A54.9,54.9,0,0,1,627.49,84a33.31,33.31,0,0,1-5.83,11.87,27.91,27.91,0,0,1-10.23,8.06,34.59,34.59,0,0,1-14.95,3,34.21,34.21,0,0,1-15.32-3.13,28.55,28.55,0,0,1-10.23-8.27,33,33,0,0,1-5.67-11.92,56.24,56.24,0,0,1-1.75-14.1V31.07h14.63V69.44a45.52,45.52,0,0,0,.9,9.17,22.71,22.71,0,0,0,3.07,7.79,15.94,15.94,0,0,0,14.26,7.53Z" />
			<path class="cls-4" d="M704.71,86.93a17.06,17.06,0,0,1-7.15,14.42,24.54,24.54,0,0,1-7.74,3.71,33.61,33.61,0,0,1-9.38,1.27H644.08V31.07h40.28a14.87,14.87,0,0,1,7.1,1.7,17.75,17.75,0,0,1,5.41,4.4,20.18,20.18,0,0,1,3.45,6.15,20.71,20.71,0,0,1,1.22,6.94,20.49,20.49,0,0,1-2.76,10.33,16.78,16.78,0,0,1-8.06,7.16,19.36,19.36,0,0,1,10.23,6.84A19.77,19.77,0,0,1,704.71,86.93Zm-46-43.35v19h19.5A8.68,8.68,0,0,0,684.52,60a9.35,9.35,0,0,0,2.6-7,9.67,9.67,0,0,0-2.38-6.89,7.74,7.74,0,0,0-5.88-2.54ZM690,84.18a11,11,0,0,0-.69-3.87,10.79,10.79,0,0,0-1.85-3.23,8.65,8.65,0,0,0-2.76-2.17,7.71,7.71,0,0,0-3.5-.79H658.71V93.93h21.73a9.53,9.53,0,0,0,3.76-.74,9,9,0,0,0,3-2.07A10.07,10.07,0,0,0,690,84.18Z" />
			<path class="cls-4" d="M716.16,106.33V31.07h14.63v75.26Z" />
			<path class="cls-4" d="M761.1,58.1v48.23H746.47V31.07h11.34L797,80.47V31.18h14.63v75.15H799.79Z" />
			<path class="cls-4" d="M879.61,97.85q-9,9-21,9a33.23,33.23,0,0,1-13.94-3,35.22,35.22,0,0,1-11.34-8.16,38.93,38.93,0,0,1-7.63-12.24,40.7,40.7,0,0,1-2.81-15.21,38.21,38.21,0,0,1,10.55-26.55,37.07,37.07,0,0,1,11.61-8.16,34.81,34.81,0,0,1,14.52-3q10.6,0,18.18,4.45a28.81,28.81,0,0,1,11.39,12L878.23,55a20.26,20.26,0,0,0-8-8.59,22,22,0,0,0-11.18-3,19.08,19.08,0,0,0-8.75,2A20.47,20.47,0,0,0,843.51,51a26,26,0,0,0-4.35,8.06,30,30,0,0,0-1.54,9.65,28.46,28.46,0,0,0,1.7,9.91,25.19,25.19,0,0,0,4.66,8A21.78,21.78,0,0,0,851,92a20.15,20.15,0,0,0,8.85,2q10.92,0,19.72-10.28v-5.3H864.45V67.64h27.24v38.69H879.61Z" />
		</g>
	</g>

</svg>
